<svg width="743" height="723" xmlns="http://www.w3.org/2000/svg">

 <metadata>image/svg+xmlOpenclipartsquare gradient halftone2011-02-02T13:57:29A Square of black and white gradient halftone in a vertical orientation.https://openclipart.org/detail/116845/square-gradient-halftone-by-tegarmajitegarmajiblack and whitegradienthalftone</metadata>
 <g>
  <title>Layer 1</title>
  <g   id="layer1">
   <rect fill="transparent" fill-rule="evenodd" x="-1051.23703" y="0.00131"  width="50" height="600" transform="matrix(0, -1.20499, 1.23833, 0, -0.00161924, -543.736)"  id="rect2985"/>
   <path fill="rgba(255, 255, 255, 0.4)" d="m0,0c0,0.39085 0.10344,0.74183 0.11609,1.12968c-0.03875,-0.00011 -0.07731,0 -0.11609,0l0,70.04008c1.24205,0 2.50527,-0.10628 3.715,-0.22594c-0.01861,0.44623 -0.11609,0.90494 -0.11609,1.35561c0,1.941 0.24627,3.80054 0.58047,5.64839c-1.36439,-0.17496 -2.76594,-0.33872 -4.17937,-0.33872l0,61.56779c2.85683,0 5.61039,-0.43846 8.24258,-1.12968c-0.49496,2.10873 -0.81259,4.32592 -0.81259,6.5672c0,3.73378 0.76566,7.22958 2.08968,10.50607c-2.96506,-1.03629 -6.18559,-1.57854 -9.51967,-1.57854l0,54.45112c5.45943,0 10.5548,-1.66108 14.85998,-4.29278c-2.41091,3.84525 -3.83115,8.38324 -3.83115,13.21754c0,14.01404 11.7187,25.3048 26.12137,25.3048c14.4018,0 26.12137,-11.29016 26.12137,-25.3048c0,-4.83394 -1.42012,-9.37194 -3.83115,-13.21754c4.30518,2.6317 9.40055,4.29278 14.85998,4.29278s10.5548,-1.66108 14.85998,-4.29278c-2.41091,3.84525 -3.83115,8.38324 -3.83115,13.21754c0,14.01404 11.7187,25.3048 26.12137,25.3048c14.4018,0 26.12137,-11.29016 26.12137,-25.3048c0,-4.83394 -1.42012,-9.37194 -3.83115,-13.21754c4.30518,2.6317 9.40055,4.29278 14.85998,4.29278s10.5548,-1.66108 14.85998,-4.29278c-2.41091,3.84525 -3.83115,8.38324 -3.83115,13.21754c0,14.01404 11.7187,25.3048 26.12137,25.3048c14.4018,0 26.12137,-11.29016 26.12137,-25.3048c0,-4.83394 -1.42012,-9.37194 -3.83115,-13.21754c4.30518,2.6317 9.40055,4.29278 14.85998,4.29278s10.5548,-1.66108 14.85998,-4.29278c-2.41091,3.84525 -3.83115,8.38324 -3.83115,13.21754c0,14.01404 11.7187,25.3048 26.12137,25.3048c14.4018,0 26.12137,-11.29016 26.12137,-25.3048c0,-4.83394 -1.42012,-9.37194 -3.83115,-13.21754c4.30518,2.6317 9.40055,4.29278 14.85998,4.29278s10.5548,-1.66108 14.85998,-4.29278c-2.41091,3.84525 -3.83115,8.38324 -3.83115,13.21754c0,14.01404 11.7187,25.3048 26.12137,25.3048c14.4018,0 26.12137,-11.29016 26.12137,-25.3048c0,-4.83394 -1.42012,-9.37194 -3.83115,-13.21754c4.30518,2.6317 9.40055,4.29278 14.85998,4.29278s10.5548,-1.66108 14.85998,-4.29278c-2.41091,3.84525 -3.83115,8.38324 -3.83115,13.21754c0,14.01404 11.7187,25.3048 26.12137,25.3048c14.4018,0 26.12137,-11.29016 26.12137,-25.3048c0,-4.83394 -1.42012,-9.37194 -3.83115,-13.21754c4.30518,2.6317 9.40055,4.29278 14.85998,4.29278s10.5548,-1.66108 14.85998,-4.29278c-2.41091,3.84525 -3.83115,8.38324 -3.83115,13.21754c0,14.01404 11.7187,25.3048 26.12137,25.3048c14.4018,0 26.12137,-11.29016 26.12137,-25.3048c0,-4.83394 -1.42012,-9.37194 -3.83115,-13.21754c4.30518,2.6317 9.40055,4.29278 14.85998,4.29278s10.5548,-1.66108 14.85998,-4.29278c-2.41091,3.84525 -3.83115,8.38324 -3.83115,13.21754c0,14.01404 11.7187,25.3048 26.12137,25.3048c14.4018,0 26.12137,-11.29016 26.12137,-25.3048c0,-4.83394 -1.42012,-9.37194 -3.83115,-13.21754c4.30518,2.6317 9.40055,4.29278 14.85998,4.29278s10.5548,-1.66108 14.85998,-4.29278c-2.41091,3.84525 -3.83115,8.38324 -3.83115,13.21754c0,14.01404 11.7187,25.3048 26.12137,25.3048c14.4018,0 26.12137,-11.29016 26.12137,-25.3048c0,-4.83394 -1.42012,-9.37194 -3.83115,-13.21754c4.30518,2.6317 9.40055,4.29278 14.85998,4.29278s10.5548,-1.66108 14.85998,-4.29278c-2.41091,3.84525 -3.83115,8.38324 -3.83115,13.21754c0,14.01404 11.7187,25.3048 26.12137,25.3048c14.4018,0 26.12137,-11.29016 26.12137,-25.3048c0,-4.83394 -1.42012,-9.37194 -3.83115,-13.21754c4.30518,2.6317 9.40055,4.29278 14.85998,4.29278l0,-54.45112c-3.33408,0 -6.55461,0.54022 -9.51967,1.58155c1.32402,-3.27637 2.08968,-6.77229 2.08968,-10.50607c0,-2.23935 -0.31763,-4.45895 -0.81266,-6.55214c2.63232,0.69122 5.38575,1.12968 8.24258,1.12968l0,-61.56779c-1.41343,0 -2.81498,0.16412 -4.17937,0.33872c0.3342,-1.84773 0.58047,-3.70739 0.58047,-5.64839c0,-0.45068 -0.09758,-0.90938 -0.11603,-1.35561c1.20968,0.11966 2.47295,0.22594 3.715,0.22594l0,-70.04008c-0.03876,0 -0.07727,-0.00011 -0.11603,0c0.013,-0.38785 0.11603,-0.73883 0.11603,-1.12968l-74.2999,0c0,0.39085 0.1034,0.74183 0.11603,1.12968c-0.03876,-0.00011 -0.07727,0 -0.11603,0s-0.07727,-0.00011 -0.11603,0c0.013,-0.38785 0.11603,-0.73883 0.11603,-1.12968l-74.2999,0c0,0.39085 0.10352,0.74183 0.11603,1.12968c-0.03876,-0.00011 -0.07727,0 -0.11603,0s-0.07727,-0.00011 -0.11603,0c0.013,-0.38785 0.11603,-0.73883 0.11603,-1.12968l-74.2999,0c0,0.39085 0.10352,0.74183 0.11603,1.12968c-0.03876,-0.00011 -0.07727,0 -0.11603,0s-0.07727,-0.00011 -0.11603,0c0.013,-0.38785 0.11603,-0.73883 0.11603,-1.12968l-74.2999,0c0,0.39085 0.10352,0.74183 0.11603,1.12968c-0.03876,-0.00011 -0.07727,0 -0.11603,0s-0.07727,-0.00011 -0.11603,0c0.013,-0.38785 0.11603,-0.73883 0.11603,-1.12968l-74.2999,0c0,0.39085 0.10352,0.74183 0.11603,1.12968c-0.03876,-0.00011 -0.07727,0 -0.11603,0s-0.07727,-0.00011 -0.11603,0c0.013,-0.38785 0.11603,-0.73883 0.11603,-1.12968l-74.2999,0c0,0.39085 0.10352,0.74183 0.11603,1.12968c-0.03888,-0.00011 -0.07727,0 -0.11603,0c-0.03888,0 -0.07727,-0.00011 -0.11603,0c0.013,-0.38785 0.11603,-0.73883 0.11603,-1.12968l-74.2999,0c0,0.39085 0.10352,0.74183 0.11603,1.12968c-0.03888,-0.00011 -0.07727,0 -0.11603,0c-0.03888,0 -0.07727,-0.00011 -0.11603,0c0.013,-0.38785 0.11603,-0.73883 0.11603,-1.12968l-74.2999,0c0,0.39085 0.1034,0.74183 0.11603,1.12968c-0.03876,-0.00011 -0.07727,0 -0.11603,0s-0.0774,-0.00011 -0.11603,0c0.01263,-0.38767 0.11603,-0.73865 0.11603,-1.1295l-74.2999,0c0,0.39085 0.10344,0.74183 0.11609,1.12968c-0.03875,-0.00011 -0.07731,0 -0.11609,0s-0.07735,-0.00011 -0.11609,0c0.01238,-0.3856 0.1164,-0.74709 0.1164,-1.13269l-74.2999,0l-0.00526,-0.01524zm35.9884,36.03645c0.38662,0.01084 0.77143,0.11279 1.16094,0.11279s0.77432,-0.10158 1.16094,-0.11279c-0.00012,0.0376 0,0.07519 0,0.11279c0,1.20861 0.10933,2.32491 0.23219,3.50194c-0.45759,-0.01807 -0.93099,0 -1.39312,0s-0.93553,-0.01807 -1.39312,0c0.12285,-1.17711 0.23219,-2.29334 0.23219,-3.50194c0,-0.0376 0.00012,-0.07519 0,-0.11279zm74.2999,0c0.38662,0.01084 0.77143,0.11279 1.16094,0.11279s0.77432,-0.10158 1.16094,-0.11279c-0.00012,0.0376 0,0.07519 0,0.11279c0,1.20861 0.10933,2.32491 0.23219,3.50194c-0.45759,-0.01807 -0.93099,0 -1.39312,0s-0.93553,-0.01807 -1.39312,0c0.12285,-1.17711 0.23219,-2.29334 0.23219,-3.50194c0,-0.0376 0.00012,-0.07519 0,-0.11279zm74.2999,0c0.38662,0.01084 0.77143,0.11279 1.16094,0.11279c0.38952,0 0.77432,-0.10158 1.16094,-0.11279c-0.00014,0.0376 0,0.07519 0,0.11279c0,1.20861 0.10934,2.32491 0.23219,3.50194c-0.45758,-0.01807 -0.931,0 -1.39312,0c-0.46213,0 -0.93553,-0.01807 -1.39312,0c0.12284,-1.17711 0.23219,-2.29334 0.23219,-3.50194c0,-0.0376 0.00012,-0.07519 0,-0.11279zm74.2999,0c0.38662,0.01084 0.77142,0.11279 1.16094,0.11279s0.77432,-0.10158 1.16094,-0.11279c-0.00014,0.0376 0,0.07519 0,0.11279c0,1.20861 0.10934,2.32491 0.23219,3.50194c-0.45758,-0.01807 -0.93099,0 -1.39312,0s-0.93555,-0.01807 -1.39312,0c0.12284,-1.17711 0.23219,-2.29334 0.23219,-3.50194c0,-0.0376 0.00012,-0.07519 0,-0.11279zm74.2999,0c0.38662,0.01084 0.77142,0.11279 1.16094,0.11279s0.77432,-0.10158 1.16094,-0.11279c-0.00012,0.0376 0,0.07519 0,0.11279c0,1.20861 0.10934,2.32491 0.23219,3.50194c-0.45758,-0.01807 -0.93099,0 -1.39312,0s-0.93555,-0.01807 -1.39312,0c0.12284,-1.17711 0.23219,-2.29334 0.23219,-3.50194c0,-0.0376 0.00012,-0.07519 0,-0.11279zm74.2999,0c0.38662,0.01084 0.77142,0.11279 1.16094,0.11279s0.77432,-0.10158 1.16094,-0.11279c-0.00011,0.0376 0,0.07519 0,0.11279c0,1.20861 0.10934,2.32491 0.23219,3.50194c-0.45758,-0.01807 -0.93098,0 -1.39312,0s-0.93555,-0.01807 -1.39312,0c0.12284,-1.17711 0.23219,-2.29334 0.23219,-3.50194c0,-0.0376 0.00011,-0.07519 0,-0.11279zm74.2999,0c0.38662,0.01084 0.77142,0.11279 1.16094,0.11279s0.77432,-0.10158 1.16094,-0.11279c-0.00011,0.0376 0,0.07519 0,0.11279c0,1.20861 0.10934,2.32491 0.23219,3.50194c-0.45758,-0.01807 -0.93098,0 -1.39312,0s-0.93555,-0.01807 -1.39312,0c0.12284,-1.17711 0.23219,-2.29334 0.23219,-3.50194c0,-0.0376 0.00011,-0.07519 0,-0.11279zm74.2999,0c0.38662,0.01084 0.77142,0.11279 1.16094,0.11279s0.77432,-0.10158 1.16094,-0.11279c-0.00011,0.0376 0,0.07519 0,0.11279c0,1.20861 0.10934,2.32491 0.23219,3.50194c-0.45758,-0.01807 -0.93098,0 -1.39312,0s-0.93555,-0.01807 -1.39312,0c0.12284,-1.17711 0.23219,-2.29334 0.23219,-3.50194c0,-0.0376 0.00011,-0.07519 0,-0.11279zm74.2999,0c0.38662,0.01084 0.77142,0.11279 1.16094,0.11279s0.77432,-0.10158 1.16094,-0.11279c-0.00011,0.0376 0,0.07519 0,0.11279c0,1.20861 0.10934,2.32491 0.23219,3.50194c-0.45758,-0.01807 -0.93098,0 -1.39312,0s-0.93555,-0.01807 -1.39312,0c0.12284,-1.17711 0.23219,-2.29334 0.23219,-3.50194c0,-0.0376 0.00011,-0.07519 0,-0.11279zm74.2999,0c0.38662,0.01084 0.77142,0.11279 1.16094,0.11279s0.77432,-0.10158 1.16094,-0.11279c-0.00011,0.0376 0,0.07519 0,0.11279c0,1.20861 0.10934,2.32491 0.23219,3.50194c-0.45758,-0.01807 -0.93098,0 -1.39312,0s-0.93555,-0.01807 -1.39312,0c0.12284,-1.17711 0.23219,-2.29334 0.23219,-3.50194c0,-0.0376 0.00011,-0.07519 0,-0.11279zm-634.10012,34.90858c1.2097,0.11966 2.47295,0.22594 3.715,0.22594s2.50527,-0.10628 3.715,-0.22594c-0.01861,0.44623 -0.11609,0.90494 -0.11609,1.35561c0,1.941 0.24627,3.80054 0.58047,5.64839c-1.36439,-0.17496 -2.76594,-0.33872 -4.17937,-0.33872s-2.81498,0.16412 -4.17937,0.33872c0.3342,-1.84773 0.58047,-3.70739 0.58047,-5.64839c0,-0.45068 -0.09748,-0.90938 -0.11609,-1.35561zm74.2999,0c1.20969,0.11966 2.47295,0.22594 3.715,0.22594s2.50527,-0.10628 3.715,-0.22594c-0.01857,0.44623 -0.11603,0.90494 -0.11603,1.35561c0,1.941 0.24627,3.80054 0.58047,5.64839c-1.36439,-0.17496 -2.76594,-0.33872 -4.17937,-0.33872s-2.81498,0.16412 -4.17937,0.33872c0.3342,-1.84773 0.58047,-3.70739 0.58047,-5.64839c0,-0.45068 -0.09746,-0.90938 -0.11603,-1.35561l-0.00012,0zm74.2999,0c1.20969,0.11966 2.47295,0.22594 3.715,0.22594s2.50527,-0.10628 3.715,-0.22594c-0.01857,0.44623 -0.11603,0.90494 -0.11603,1.35561c0,1.941 0.24627,3.80054 0.58047,5.64839c-1.36439,-0.17496 -2.76594,-0.33872 -4.17937,-0.33872s-2.81498,0.16412 -4.17937,0.33872c0.3342,-1.84773 0.58047,-3.70739 0.58047,-5.64839c0,-0.45068 -0.09758,-0.90938 -0.11603,-1.35561l-0.00012,0zm74.2999,0c1.20969,0.11966 2.47295,0.22594 3.715,0.22594s2.50527,-0.10628 3.715,-0.22594c-0.01857,0.44623 -0.11603,0.90494 -0.11603,1.35561c0,1.941 0.24627,3.80054 0.58047,5.64839c-1.36439,-0.17496 -2.76594,-0.33872 -4.17937,-0.33872s-2.81498,0.16412 -4.17937,0.33872c0.3342,-1.84773 0.58047,-3.70739 0.58047,-5.64839c0,-0.45068 -0.09758,-0.90938 -0.11603,-1.35561l-0.00012,0zm74.2999,0c1.20969,0.11966 2.47295,0.22594 3.715,0.22594s2.50527,-0.10628 3.715,-0.22594c-0.01857,0.44623 -0.11603,0.90494 -0.11603,1.35561c0,1.941 0.24627,3.80054 0.58047,5.64839c-1.36439,-0.17496 -2.76594,-0.33872 -4.17937,-0.33872s-2.81498,0.16412 -4.17937,0.33872c0.3342,-1.84773 0.58047,-3.70739 0.58047,-5.64839c0,-0.45068 -0.09758,-0.90938 -0.11603,-1.35561l-0.00012,0zm74.2999,0c1.20968,0.11966 2.47295,0.22594 3.715,0.22594s2.50527,-0.10628 3.715,-0.22594c-0.01857,0.44623 -0.11603,0.90494 -0.11603,1.35561c0,1.941 0.24627,3.80054 0.58047,5.64839c-1.36439,-0.17496 -2.76594,-0.33872 -4.17937,-0.33872s-2.81498,0.16412 -4.17937,0.33872c0.3342,-1.84773 0.58047,-3.70739 0.58047,-5.64839c0,-0.45068 -0.09758,-0.90938 -0.11603,-1.35561l-0.00012,0zm74.2999,0c1.20968,0.11966 2.47295,0.22594 3.715,0.22594s2.50527,-0.10628 3.715,-0.22594c-0.01857,0.44623 -0.11603,0.90494 -0.11603,1.35561c0,1.941 0.24627,3.80054 0.58047,5.64839c-1.36439,-0.17496 -2.76594,-0.33872 -4.17937,-0.33872s-2.81498,0.16412 -4.17937,0.33872c0.3342,-1.84773 0.58047,-3.70739 0.58047,-5.64839c0,-0.45068 -0.09758,-0.90938 -0.11603,-1.35561l-0.00012,0zm74.2999,0c1.20968,0.11966 2.47295,0.22594 3.715,0.22594s2.50527,-0.10628 3.715,-0.22594c-0.01857,0.44623 -0.11603,0.90494 -0.11603,1.35561c0,1.941 0.24627,3.80054 0.58047,5.64839c-1.36439,-0.17496 -2.76594,-0.33872 -4.17937,-0.33872s-2.81498,0.16412 -4.17937,0.33872c0.3342,-1.84773 0.58047,-3.70739 0.58047,-5.64839c0,-0.45068 -0.09758,-0.90938 -0.11603,-1.35561l-0.00012,0zm74.2999,0c1.20968,0.11966 2.47295,0.22594 3.715,0.22594s2.50527,-0.10628 3.715,-0.22594c-0.01857,0.44623 -0.11603,0.90494 -0.11603,1.35561c0,1.941 0.24627,3.80054 0.58047,5.64839c-1.36439,-0.17496 -2.76594,-0.33872 -4.17937,-0.33872s-2.81498,0.16412 -4.17937,0.33872c0.3342,-1.84773 0.58047,-3.70739 0.58047,-5.64839c0,-0.45068 -0.09758,-0.90938 -0.11603,-1.35561l-0.00012,0zm-633.64194,33.31799c1.89093,0.32246 3.81889,0.56484 5.80468,0.56484s3.91375,-0.24256 5.80468,-0.56484c-0.1898,1.36333 -0.23219,2.76594 -0.23219,4.17987c0,2.7516 0.34843,5.3698 1.04484,7.90775c-2.11804,-0.46622 -4.35435,-0.67781 -6.6174,-0.67781c-2.26293,0 -4.49923,0.21148 -6.6174,0.67781c0.69641,-2.53795 1.04484,-5.15616 1.04484,-7.90775c0,-1.41394 -0.04239,-2.81655 -0.23219,-4.17987l0.00012,0zm74.2999,0c1.89093,0.32246 3.81889,0.56484 5.80468,0.56484s3.91375,-0.24256 5.80468,-0.56484c-0.1898,1.36333 -0.23219,2.76594 -0.23219,4.17987c0,2.7516 0.34843,5.3698 1.04484,7.90775c-2.11804,-0.46622 -4.35435,-0.67781 -6.6174,-0.67781c-2.26293,0 -4.49923,0.21148 -6.6174,0.67781c0.69641,-2.53795 1.04484,-5.15616 1.04484,-7.90775c0,-1.41394 -0.04239,-2.81655 -0.23219,-4.17987l0.00012,0zm74.2999,0c1.89093,0.32246 3.81889,0.56484 5.80468,0.56484s3.91375,-0.24256 5.80468,-0.56484c-0.1898,1.36333 -0.23219,2.76594 -0.23219,4.17987c0,2.7516 0.34843,5.3698 1.04484,7.90775c-2.11804,-0.46622 -4.35447,-0.67781 -6.6174,-0.67781s-4.49923,0.21148 -6.6174,0.67781c0.69641,-2.53795 1.04484,-5.15616 1.04484,-7.90775c0,-1.41394 -0.04235,-2.81655 -0.23219,-4.17987l0.00012,0zm74.2999,0c1.89093,0.32246 3.81889,0.56484 5.80468,0.56484s3.91375,-0.24256 5.80468,-0.56484c-0.1898,1.36333 -0.23219,2.76594 -0.23219,4.17987c0,2.7516 0.34843,5.3698 1.04484,7.90775c-2.11804,-0.46622 -4.35435,-0.67781 -6.6174,-0.67781c-2.26293,0 -4.49923,0.21148 -6.6174,0.67781c0.69641,-2.53795 1.04484,-5.15616 1.04484,-7.90775c0,-1.41394 -0.04235,-2.81655 -0.23219,-4.17987l0.00012,0zm74.2999,0c1.89093,0.32246 3.81889,0.56484 5.80468,0.56484s3.91375,-0.24256 5.80468,-0.56484c-0.1898,1.36333 -0.23219,2.76594 -0.23219,4.17987c0,2.7516 0.34843,5.3698 1.04484,7.90775c-2.11804,-0.46622 -4.35435,-0.67781 -6.6174,-0.67781c-2.26293,0 -4.49923,0.21148 -6.6174,0.67781c0.69641,-2.53795 1.04484,-5.15616 1.04484,-7.90775c0,-1.41394 -0.04235,-2.81655 -0.23219,-4.17987l0.00012,0zm74.2999,0c1.89093,0.32246 3.81877,0.56484 5.80468,0.56484c1.98579,0 3.91375,-0.24256 5.80468,-0.56484c-0.1898,1.36333 -0.23219,2.76594 -0.23219,4.17987c0,2.7516 0.34843,5.3698 1.04484,7.90775c-2.11804,-0.46622 -4.35435,-0.67781 -6.6174,-0.67781c-2.26293,0 -4.49923,0.21148 -6.6174,0.67781c0.69641,-2.53795 1.04484,-5.15616 1.04484,-7.90775c0,-1.41394 -0.04235,-2.81655 -0.23219,-4.17987l0.00012,0zm74.2999,0c1.89093,0.32246 3.81877,0.56484 5.80468,0.56484c1.98579,0 3.91375,-0.24256 5.80468,-0.56484c-0.1898,1.36333 -0.23219,2.76594 -0.23219,4.17987c0,2.7516 0.34843,5.3698 1.04484,7.90775c-2.11804,-0.46622 -4.35435,-0.67781 -6.6174,-0.67781c-2.26293,0 -4.49923,0.21148 -6.6174,0.67781c0.69641,-2.53795 1.04484,-5.15616 1.04484,-7.90775c0,-1.41394 -0.04235,-2.81655 -0.23219,-4.17987l0.00012,0zm74.2999,0c1.89093,0.32246 3.81877,0.56484 5.80468,0.56484c1.98579,0 3.91375,-0.24256 5.80468,-0.56484c-0.1898,1.36333 -0.23219,2.76594 -0.23219,4.17987c0,2.7516 0.34843,5.3698 1.04484,7.90775c-2.11804,-0.46622 -4.35435,-0.67781 -6.6174,-0.67781c-2.26293,0 -4.49923,0.21148 -6.6174,0.67781c0.69641,-2.53795 1.04484,-5.15616 1.04484,-7.90775c0,-1.41394 -0.04235,-2.81655 -0.23219,-4.17987l0.00012,0zm74.2999,0c1.89093,0.32246 3.81877,0.56484 5.80468,0.56484c1.98579,0 3.91375,-0.24256 5.80468,-0.56484c-0.1898,1.36333 -0.23219,2.76594 -0.23219,4.17987c0,2.7516 0.34843,5.3698 1.04484,7.90775c-2.11804,-0.46622 -4.35435,-0.67781 -6.6174,-0.67781c-2.26293,0 -4.49923,0.21148 -6.6174,0.67781c0.69641,-2.53795 1.04484,-5.15616 1.04484,-7.90775c0,-1.41394 -0.04235,-2.81655 -0.23219,-4.17987l0.00012,0zm74.2999,0c1.89093,0.32246 3.81877,0.56484 5.80468,0.56484c1.98579,0 3.91375,-0.24256 5.80468,-0.56484c-0.1898,1.36333 -0.23219,2.76594 -0.23219,4.17987c0,2.7516 0.34843,5.3698 1.04484,7.90775c-2.11804,-0.46622 -4.35435,-0.67781 -6.6174,-0.67781c-2.26293,0 -4.49923,0.21148 -6.6174,0.67781c0.69641,-2.53795 1.04484,-5.15616 1.04484,-7.90775c0,-1.41394 -0.04235,-2.81655 -0.23219,-4.17987l0.00012,0zm-633.98867,33.77589c2.63232,0.69122 5.38575,1.12968 8.24258,1.12968s5.61039,-0.43846 8.24258,-1.12968c-0.49533,2.09668 -0.81235,4.31387 -0.81235,6.55515c0,3.73378 0.76567,7.22958 2.08968,10.50607c-2.96506,-1.04133 -6.18559,-1.58155 -9.51967,-1.58155s-6.55461,0.54022 -9.51967,1.58155c1.32402,-3.27637 2.08968,-6.77229 2.08968,-10.50607c0,-2.23935 -0.31762,-4.45895 -0.81266,-6.55214l-0.00019,-0.00301zm74.2999,0c2.63232,0.69122 5.38575,1.12968 8.24258,1.12968s5.61039,-0.43846 8.24258,-1.12968c-0.49504,2.09319 -0.81266,4.31278 -0.81266,6.55214c0,3.73378 0.76566,7.22958 2.08968,10.50607c-2.96506,-1.04133 -6.18559,-1.58155 -9.51967,-1.58155s-6.55461,0.54022 -9.51967,1.58155c1.32402,-3.27637 2.08968,-6.77229 2.08968,-10.50607c0,-2.23935 -0.31762,-4.45895 -0.81266,-6.55214l0.00012,0zm74.2999,0c2.63232,0.69122 5.38575,1.12968 8.24258,1.12968s5.61039,-0.43846 8.24258,-1.12968c-0.49505,2.09319 -0.81266,4.31278 -0.81266,6.55214c0,3.73378 0.76566,7.22958 2.08968,10.50607c-2.96506,-1.04133 -6.18559,-1.58155 -9.51967,-1.58155s-6.55461,0.54022 -9.51967,1.58155c1.32402,-3.27637 2.08968,-6.77229 2.08968,-10.50607c0,-2.23935 -0.31762,-4.45895 -0.81266,-6.55214l0.00012,0zm74.2999,0c2.63232,0.69122 5.38575,1.12968 8.24258,1.12968s5.61039,-0.43846 8.24258,-1.12968c-0.49505,2.09319 -0.81266,4.31278 -0.81266,6.55214c0,3.73378 0.76566,7.22958 2.08968,10.50607c-2.96506,-1.04133 -6.18559,-1.58155 -9.51967,-1.58155s-6.55461,0.54022 -9.51967,1.58155c1.32402,-3.27637 2.08968,-6.77229 2.08968,-10.50607c0,-2.23935 -0.31762,-4.45895 -0.81266,-6.55214l0.00012,0zm74.2999,0c2.63232,0.69122 5.38575,1.12968 8.24258,1.12968s5.61039,-0.43846 8.24258,-1.12968c-0.48295,2.09668 -0.80492,4.31387 -0.80492,6.55515c0,3.73378 0.76566,7.22958 2.08968,10.50607c-2.96506,-1.04133 -6.18559,-1.58155 -9.51967,-1.58155s-6.55461,0.54022 -9.51967,1.58155c1.32402,-3.27637 2.08968,-6.77229 2.08968,-10.50607c0,-2.23935 -0.31762,-4.45895 -0.81266,-6.55214l-0.00762,-0.00301zm74.2999,0c2.63232,0.69122 5.38575,1.12968 8.24258,1.12968s5.61039,-0.43846 8.24258,-1.12968c-0.48295,2.09668 -0.80492,4.31387 -0.80492,6.55515c0,3.73378 0.76566,7.22958 2.08968,10.50607c-2.96506,-1.04133 -6.18559,-1.58155 -9.51967,-1.58155s-6.55461,0.54022 -9.51967,1.58155c1.32402,-3.27637 2.08968,-6.77229 2.08968,-10.50607c0,-2.23935 -0.31763,-4.45895 -0.81266,-6.55214l-0.00762,-0.00301zm74.2999,0c2.63232,0.69122 5.38575,1.12968 8.24258,1.12968s5.61039,-0.43846 8.24258,-1.12968c-0.48295,2.09668 -0.80492,4.31387 -0.80492,6.55515c0,3.73378 0.76566,7.22958 2.08968,10.50607c-2.96506,-1.04133 -6.18559,-1.58155 -9.51967,-1.58155s-6.55461,0.54022 -9.51967,1.58155c1.32402,-3.27637 2.08968,-6.77229 2.08968,-10.50607c0,-2.23935 -0.31763,-4.45895 -0.81266,-6.55214l-0.00762,-0.00301zm74.2999,0c2.63232,0.69122 5.38575,1.12968 8.24258,1.12968s5.61039,-0.43846 8.24258,-1.12968c-0.48295,2.09668 -0.80492,4.31387 -0.80492,6.55515c0,3.73378 0.76566,7.22958 2.08968,10.50607c-2.96506,-1.04133 -6.18559,-1.58155 -9.51967,-1.58155s-6.55461,0.54022 -9.51967,1.58155c1.32402,-3.27637 2.08968,-6.77229 2.08968,-10.50607c0,-2.23935 -0.31763,-4.45895 -0.81266,-6.55214l-0.00762,-0.00301zm74.2999,0c2.63232,0.69122 5.38575,1.12968 8.24258,1.12968s5.61039,-0.43846 8.24258,-1.12968c-0.48295,2.09668 -0.80492,4.31387 -0.80492,6.55515c0,3.73378 0.76566,7.22958 2.08968,10.50607c-2.96506,-1.04133 -6.18559,-1.58155 -9.51967,-1.58155s-6.55461,0.54022 -9.51967,1.58155c1.32402,-3.27637 2.08968,-6.77229 2.08968,-10.50607c0,-2.23935 -0.31763,-4.45895 -0.81266,-6.55214l-0.00762,-0.00301zm-634.21157,33.33004c3.37681,1.29693 7.06233,2.14633 10.9128,2.14633s7.53599,-0.84941 10.9128,-2.14633c-1.09805,2.91825 -1.74134,6.08797 -1.74134,9.37627c0,5.31244 1.59101,10.15759 4.29552,14.34662c-3.92824,-2.30695 -8.54399,-3.61497 -13.46686,-3.61497s-9.53862,1.30802 -13.46686,3.61497c2.70452,-4.18927 4.29552,-9.03442 4.29552,-14.34662c0,-3.2883 -0.64335,-6.45815 -1.74134,-9.37627l-0.00025,0zm74.2999,0c3.37681,1.29693 7.06233,2.14633 10.9128,2.14633s7.53599,-0.84941 10.9128,-2.14633c-1.09805,2.91825 -1.74134,6.08797 -1.74134,9.37627c0,5.31244 1.59101,10.15759 4.29552,14.34662c-3.92824,-2.30695 -8.54399,-3.61497 -13.46686,-3.61497s-9.53862,1.30802 -13.46686,3.61497c2.70452,-4.18927 4.29552,-9.03442 4.29552,-14.34662c0,-3.2883 -0.64335,-6.45815 -1.74134,-9.37627l-0.00025,0zm74.2999,0c3.37681,1.29693 7.06233,2.14633 10.9128,2.14633s7.53599,-0.84941 10.9128,-2.14633c-1.09807,2.91825 -1.74134,6.08797 -1.74134,9.37627c0,5.31244 1.59101,10.15759 4.29552,14.34662c-3.92824,-2.30695 -8.54412,-3.61497 -13.46686,-3.61497c-4.92286,0 -9.53862,1.30802 -13.46686,3.61497c2.70452,-4.18927 4.29552,-9.03442 4.29552,-14.34662c0,-3.2883 -0.64335,-6.45815 -1.74134,-9.37627l-0.00025,0zm74.2999,0c3.37681,1.29693 7.06233,2.14633 10.9128,2.14633s7.53599,-0.84941 10.9128,-2.14633c-1.09807,2.91825 -1.74134,6.08797 -1.74134,9.37627c0,5.31244 1.59101,10.15759 4.29552,14.34662c-3.92824,-2.30695 -8.54412,-3.61497 -13.46686,-3.61497c-4.92286,0 -9.53862,1.30802 -13.46686,3.61497c2.70452,-4.18927 4.29552,-9.03442 4.29552,-14.34662c0,-3.2883 -0.64334,-6.45815 -1.74134,-9.37627l-0.00025,0zm74.2999,0c3.37681,1.29693 7.06233,2.14633 10.9128,2.14633s7.53599,-0.84941 10.9128,-2.14633c-1.09807,2.91825 -1.74134,6.08797 -1.74134,9.37627c0,5.31244 1.59101,10.15759 4.29552,14.34662c-3.92824,-2.30695 -8.54412,-3.61497 -13.46686,-3.61497c-4.92286,0 -9.53862,1.30802 -13.46686,3.61497c2.70452,-4.18927 4.29552,-9.03442 4.29552,-14.34662c0,-3.2883 -0.64334,-6.45815 -1.74134,-9.37627l-0.00025,0zm74.2999,0c3.37681,1.29693 7.06233,2.14633 10.9128,2.14633s7.53599,-0.84941 10.9128,-2.14633c-1.09804,2.91825 -1.74134,6.08797 -1.74134,9.37627c0,5.31244 1.59101,10.15759 4.29552,14.34662c-3.92824,-2.30695 -8.54399,-3.61497 -13.46686,-3.61497s-9.53862,1.30802 -13.46686,3.61497c2.70452,-4.18927 4.29552,-9.03442 4.29552,-14.34662c0,-3.2883 -0.64336,-6.45815 -1.74134,-9.37627l-0.00025,0zm74.2999,0c3.37681,1.29693 7.06233,2.14633 10.9128,2.14633s7.53599,-0.84941 10.9128,-2.14633c-1.09804,2.91825 -1.74134,6.08797 -1.74134,9.37627c0,5.31244 1.59101,10.15759 4.29552,14.34662c-3.92824,-2.30695 -8.54399,-3.61497 -13.46686,-3.61497s-9.53862,1.30802 -13.46686,3.61497c2.70452,-4.18927 4.29552,-9.03442 4.29552,-14.34662c0,-3.2883 -0.64336,-6.45815 -1.74134,-9.37627l-0.00025,0zm74.2999,0c3.37681,1.29693 7.06233,2.14633 10.9128,2.14633s7.53599,-0.84941 10.9128,-2.14633c-1.09804,2.91825 -1.74134,6.08797 -1.74134,9.37627c0,5.31244 1.59101,10.15759 4.29552,14.34662c-3.92824,-2.30695 -8.54399,-3.61497 -13.46686,-3.61497s-9.53862,1.30802 -13.46686,3.61497c2.70452,-4.18927 4.29552,-9.03442 4.29552,-14.34662c0,-3.2883 -0.64336,-6.45815 -1.74134,-9.37627l-0.00025,0zm74.2999,0c3.37681,1.29693 7.06233,2.14633 10.9128,2.14633s7.53599,-0.84941 10.9128,-2.14633c-1.09804,2.91825 -1.74134,6.08797 -1.74134,9.37627c0,5.31244 1.59101,10.15759 4.29552,14.34662c-3.92824,-2.30695 -8.54399,-3.61497 -13.46686,-3.61497s-9.53862,1.30802 -13.46686,3.61497c2.70452,-4.18927 4.29552,-9.03442 4.29552,-14.34662c0,-3.2883 -0.64336,-6.45815 -1.74134,-9.37627l-0.00025,0zm74.2999,0c3.37681,1.29693 7.06233,2.14633 10.9128,2.14633s7.53599,-0.84941 10.9128,-2.14633c-1.09804,2.91825 -1.74134,6.08797 -1.74134,9.37627c0,5.31244 1.59101,10.15759 4.29552,14.34662c-3.92824,-2.30695 -8.54399,-3.61497 -13.46686,-3.61497s-9.53862,1.30802 -13.46686,3.61497c2.70452,-4.18927 4.29552,-9.03442 4.29552,-14.34662c0,-3.2883 -0.64336,-6.45815 -1.74134,-9.37627l-0.00025,0zm-694.93935,58.0685l0,47.10309c13.35665,0 24.14747,-10.50053 24.14747,-23.49732s-10.79107,-23.61059 -24.14747,-23.61059l0,0.00482zm74.2999,0c-13.35665,0 -24.14747,10.61356 -24.14747,23.61059s10.79107,23.49732 24.14747,23.49732s24.14747,-10.50053 24.14747,-23.49732s-10.79107,-23.61059 -24.14747,-23.61059zm74.2999,0c-13.35665,0 -24.14747,10.61356 -24.14747,23.61059s10.79107,23.49732 24.14747,23.49732s24.14747,-10.50053 24.14747,-23.49732s-10.79107,-23.61059 -24.14747,-23.61059zm74.2999,0c-13.35665,0 -24.14747,10.61356 -24.14747,23.61059s10.79107,23.49732 24.14747,23.49732s24.14747,-10.50053 24.14747,-23.49732s-10.79107,-23.61059 -24.14747,-23.61059zm74.2999,0c-13.35665,0 -24.14747,10.61356 -24.14747,23.61059s10.79107,23.49732 24.14747,23.49732s24.14747,-10.50053 24.14747,-23.49732s-10.79107,-23.61059 -24.14747,-23.61059zm74.2999,0c-13.35665,0 -24.14747,10.61356 -24.14747,23.61059s10.79107,23.49732 24.14747,23.49732s24.14747,-10.50053 24.14747,-23.49732s-10.79107,-23.61059 -24.14747,-23.61059zm74.2999,0c-13.35665,0 -24.14747,10.61356 -24.14747,23.61059s10.79107,23.49732 24.14747,23.49732s24.14747,-10.50053 24.14747,-23.49732s-10.79107,-23.61059 -24.14747,-23.61059zm74.2999,0c-13.35665,0 -24.14747,10.61356 -24.14747,23.61059s10.79107,23.49732 24.14747,23.49732s24.14747,-10.50053 24.14747,-23.49732s-10.79107,-23.61059 -24.14747,-23.61059zm74.2999,0c-13.35665,0 -24.14747,10.61356 -24.14747,23.61059s10.79107,23.49732 24.14747,23.49732s24.14747,-10.50053 24.14747,-23.49732s-10.79107,-23.61059 -24.14747,-23.61059zm74.2999,0c-13.35665,0 -24.14747,10.61356 -24.14747,23.61059s10.79107,23.49732 24.14747,23.49732s24.14747,-10.50053 24.14747,-23.49732s-10.79107,-23.61059 -24.14747,-23.61059zm74.2999,0c-13.35665,0 -24.14747,10.61356 -24.14747,23.61059s10.79107,23.49732 24.14747,23.49732l0,-47.10791zm-705.84906,37.83671c-12.39075,0 -22.40637,9.85851 -22.40637,21.91637c0,12.05714 10.01513,21.8031 22.40637,21.8031s22.40637,-9.74548 22.40637,-21.8031s-10.01513,-21.91637 -22.40637,-21.91637zm74.2999,0c-12.39075,0 -22.40637,9.85851 -22.40637,21.91637c0,12.05714 10.01513,21.8031 22.40637,21.8031s22.40637,-9.74548 22.40637,-21.8031s-10.01526,-21.91637 -22.40637,-21.91637zm74.2999,0c-12.39075,0 -22.40637,9.85851 -22.40637,21.91637c0,12.05714 10.01513,21.8031 22.40637,21.8031s22.40637,-9.74548 22.40637,-21.8031s-10.01513,-21.91637 -22.40637,-21.91637zm74.2999,0c-12.39075,0 -22.40637,9.85851 -22.40637,21.91637c0,12.05714 10.01513,21.8031 22.40637,21.8031s22.40637,-9.74548 22.40637,-21.8031s-10.01526,-21.91637 -22.40637,-21.91637zm74.2999,0c-12.39075,0 -22.40637,9.85851 -22.40637,21.91637c0,12.05714 10.01526,21.8031 22.40637,21.8031s22.40637,-9.74548 22.40637,-21.8031s-10.01513,-21.91637 -22.40637,-21.91637zm74.2999,0c-12.39075,0 -22.40637,9.85851 -22.40637,21.91637c0,12.05714 10.01513,21.8031 22.40637,21.8031s22.40637,-9.74548 22.40637,-21.8031s-10.01513,-21.91637 -22.40637,-21.91637zm74.2999,0c-12.39075,0 -22.40637,9.85851 -22.40637,21.91637c0,12.05714 10.01513,21.8031 22.40637,21.8031s22.40637,-9.74548 22.40637,-21.8031s-10.01513,-21.91637 -22.40637,-21.91637zm74.2999,0c-12.39075,0 -22.40637,9.85851 -22.40637,21.91637c0,12.05714 10.01513,21.8031 22.40637,21.8031s22.40637,-9.74548 22.40637,-21.8031s-10.01513,-21.91637 -22.40637,-21.91637zm74.2999,0c-12.39075,0 -22.40637,9.85851 -22.40637,21.91637c0,12.05714 10.01513,21.8031 22.40637,21.8031s22.40637,-9.74548 22.40637,-21.8031s-10.01513,-21.91637 -22.40637,-21.91637zm74.2999,0c-12.39075,0 -22.40637,9.85851 -22.40637,21.91637c0,12.05714 10.01513,21.8031 22.40637,21.8031s22.40637,-9.74548 22.40637,-21.8031s-10.01513,-21.91637 -22.40637,-21.91637zm-705.84906,38.07048l0,39.99123c11.34498,0 20.54888,-8.95585 20.54888,-19.99562c0,-11.0394 -9.20365,-19.99562 -20.54888,-19.99562zm74.2999,0c-11.34498,0 -20.54888,8.95585 -20.54888,19.99562c0,11.0394 9.20365,19.99562 20.54888,19.99562c11.34485,0 20.54888,-8.95585 20.54888,-19.99562c0,-11.0394 -9.20365,-19.99562 -20.54888,-19.99562zm74.2999,0c-11.34485,0 -20.54888,8.95585 -20.54888,19.99562c0,11.0394 9.20365,19.99562 20.54888,19.99562c11.34485,0 20.54888,-8.95585 20.54888,-19.99562c0,-11.0394 -9.20365,-19.99562 -20.54888,-19.99562zm74.2999,0c-11.34498,0 -20.54888,8.95585 -20.54888,19.99562c0,11.0394 9.20365,19.99562 20.54888,19.99562c11.34485,0 20.54888,-8.95585 20.54888,-19.99562c0,-11.0394 -9.20365,-19.99562 -20.54888,-19.99562zm74.2999,0c-11.34485,0 -20.54888,8.95585 -20.54888,19.99562c0,11.0394 9.20365,19.99562 20.54888,19.99562c11.34485,0 20.54888,-8.95585 20.54888,-19.99562c0,-11.0394 -9.20365,-19.99562 -20.54888,-19.99562zm74.2999,0c-11.34485,0 -20.54888,8.95585 -20.54888,19.99562c0,11.0394 9.20365,19.99562 20.54888,19.99562c11.34485,0 20.54888,-8.95585 20.54888,-19.99562c0,-11.0394 -9.20365,-19.99562 -20.54888,-19.99562zm74.2999,0c-11.34485,0 -20.54888,8.95585 -20.54888,19.99562c0,11.0394 9.20365,19.99562 20.54888,19.99562c11.34485,0 20.54888,-8.95585 20.54888,-19.99562c0,-11.0394 -9.20365,-19.99562 -20.54888,-19.99562zm74.2999,0c-11.34485,0 -20.54888,8.95585 -20.54888,19.99562c0,11.0394 9.20365,19.99562 20.54888,19.99562c11.34485,0 20.54888,-8.95585 20.54888,-19.99562c0,-11.0394 -9.20365,-19.99562 -20.54888,-19.99562zm74.2999,0c-11.34485,0 -20.54888,8.95585 -20.54888,19.99562c0,11.0394 9.20365,19.99562 20.54888,19.99562c11.34485,0 20.54888,-8.95585 20.54888,-19.99562c0,-11.0394 -9.20365,-19.99562 -20.54888,-19.99562zm74.2999,0c-11.34485,0 -20.54888,8.95585 -20.54888,19.99562c0,11.0394 9.20365,19.99562 20.54888,19.99562c11.34485,0 20.54888,-8.95585 20.54888,-19.99562c0,-11.0394 -9.20365,-19.99562 -20.54888,-19.99562zm74.2999,0c-11.34485,0 -20.54888,8.95585 -20.54888,19.99562c0,11.0394 9.20365,19.99562 20.54888,19.99562l0,-39.99123zm-705.84906,37.95721c-10.29896,0 -18.69138,8.16622 -18.69138,18.18813c0,10.02167 8.39217,18.07486 18.69138,18.07486c10.29896,0 18.69138,-8.05319 18.69138,-18.07486s-8.39217,-18.18813 -18.69138,-18.18813zm74.2999,0c-10.29896,0 -18.69138,8.16622 -18.69138,18.18813c0,10.02167 8.39217,18.07486 18.69138,18.07486c10.29883,0 18.69138,-8.05319 18.69138,-18.07486s-8.39217,-18.18813 -18.69138,-18.18813zm74.2999,0c-10.29896,0 -18.69138,8.16622 -18.69138,18.18813c0,10.02167 8.39217,18.07486 18.69138,18.07486c10.29896,0 18.69138,-8.05319 18.69138,-18.07486s-8.39217,-18.18813 -18.69138,-18.18813zm74.2999,0c-10.29896,0 -18.69138,8.16622 -18.69138,18.18813c0,10.02167 8.39217,18.07486 18.69138,18.07486c10.29896,0 18.69138,-8.05319 18.69138,-18.07486s-8.39217,-18.18813 -18.69138,-18.18813zm74.2999,0c-10.29896,0 -18.69138,8.16622 -18.69138,18.18813c0,10.02167 8.39217,18.07486 18.69138,18.07486c10.29896,0 18.69138,-8.05319 18.69138,-18.07486s-8.39217,-18.18813 -18.69138,-18.18813zm74.2999,0c-10.29896,0 -18.69138,8.16622 -18.69138,18.18813c0,10.02167 8.39217,18.07486 18.69138,18.07486c10.29896,0 18.69138,-8.05319 18.69138,-18.07486s-8.39217,-18.18813 -18.69138,-18.18813zm74.2999,0c-10.29896,0 -18.69138,8.16622 -18.69138,18.18813c0,10.02167 8.39217,18.07486 18.69138,18.07486c10.29896,0 18.69138,-8.05319 18.69138,-18.07486s-8.39217,-18.18813 -18.69138,-18.18813zm74.2999,0c-10.29896,0 -18.69138,8.16622 -18.69138,18.18813c0,10.02167 8.39217,18.07486 18.69138,18.07486c10.29896,0 18.69138,-8.05319 18.69138,-18.07486s-8.39217,-18.18813 -18.69138,-18.18813zm74.2999,0c-10.29896,0 -18.69138,8.16622 -18.69138,18.18813c0,10.02167 8.39217,18.07486 18.69138,18.07486c10.29896,0 18.69138,-8.05319 18.69138,-18.07486s-8.39217,-18.18813 -18.69138,-18.18813zm74.2999,0c-10.29896,0 -18.69138,8.16622 -18.69138,18.18813c0,10.02167 8.39217,18.07486 18.69138,18.07486c10.29896,0 18.69138,-8.05319 18.69138,-18.07486s-8.39217,-18.18813 -18.69138,-18.18813zm-705.84906,37.95721l0,32.64802c9.25294,0 16.71748,-7.26356 16.71748,-16.26737s-7.46454,-16.38064 -16.71748,-16.38064zm74.2999,0c-9.25294,0 -16.71748,7.37659 -16.71748,16.38064c0,9.00381 7.46454,16.26737 16.71748,16.26737s16.71748,-7.26356 16.71748,-16.26737s-7.46454,-16.38064 -16.71748,-16.38064zm74.2999,0c-9.25294,0 -16.71748,7.37659 -16.71748,16.38064c0,9.00381 7.46454,16.26737 16.71748,16.26737s16.71748,-7.26356 16.71748,-16.26737s-7.46454,-16.38064 -16.71748,-16.38064zm74.2999,0c-9.25294,0 -16.71748,7.37659 -16.71748,16.38064c0,9.00381 7.46454,16.26737 16.71748,16.26737s16.71748,-7.26356 16.71748,-16.26737s-7.46454,-16.38064 -16.71748,-16.38064zm74.2999,0c-9.25294,0 -16.71748,7.37659 -16.71748,16.38064c0,9.00381 7.46454,16.26737 16.71748,16.26737s16.71748,-7.26356 16.71748,-16.26737s-7.46454,-16.38064 -16.71748,-16.38064zm74.2999,0c-9.25294,0 -16.71748,7.37659 -16.71748,16.38064c0,9.00381 7.46454,16.26737 16.71748,16.26737s16.71748,-7.26356 16.71748,-16.26737s-7.46454,-16.38064 -16.71748,-16.38064zm74.2999,0c-9.25294,0 -16.71748,7.37659 -16.71748,16.38064c0,9.00381 7.46454,16.26737 16.71748,16.26737s16.71748,-7.26356 16.71748,-16.26737s-7.46454,-16.38064 -16.71748,-16.38064zm74.2999,0c-9.25294,0 -16.71748,7.37659 -16.71748,16.38064c0,9.00381 7.46454,16.26737 16.71748,16.26737s16.71748,-7.26356 16.71748,-16.26737s-7.46454,-16.38064 -16.71748,-16.38064zm74.2999,0c-9.25294,0 -16.71748,7.37659 -16.71748,16.38064c0,9.00381 7.46454,16.26737 16.71748,16.26737s16.71748,-7.26356 16.71748,-16.26737s-7.46454,-16.38064 -16.71748,-16.38064zm74.2999,0c-9.25294,0 -16.71748,7.37659 -16.71748,16.38064c0,9.00381 7.46454,16.26737 16.71748,16.26737s16.71748,-7.26356 16.71748,-16.26737s-7.46454,-16.38064 -16.71748,-16.38064zm74.2999,0c-9.25294,0 -16.71748,7.37659 -16.71748,16.38064c0,9.00381 7.46454,16.26737 16.71748,16.26737l0,-32.64802zm-705.84906,38.07771c-8.20692,0 -14.85998,6.47393 -14.85998,14.45989s6.65306,14.45989 14.85998,14.45989s14.85998,-6.47393 14.85998,-14.45989s-6.65306,-14.45989 -14.85998,-14.45989zm74.2999,0c-8.20704,0 -14.85998,6.47393 -14.85998,14.45989s6.65294,14.45989 14.85998,14.45989c8.20692,0 14.85998,-6.47393 14.85998,-14.45989s-6.65306,-14.45989 -14.85998,-14.45989zm74.2999,0c-8.20692,0 -14.85998,6.47393 -14.85998,14.45989s6.65306,14.45989 14.85998,14.45989s14.85998,-6.47393 14.85998,-14.45989s-6.65306,-14.45989 -14.85998,-14.45989zm74.2999,0c-8.20692,0 -14.85998,6.47393 -14.85998,14.45989s6.65306,14.45989 14.85998,14.45989s14.85998,-6.47393 14.85998,-14.45989s-6.65306,-14.45989 -14.85998,-14.45989zm74.2999,0c-8.20692,0 -14.85998,6.47393 -14.85998,14.45989s6.65306,14.45989 14.85998,14.45989s14.85998,-6.47393 14.85998,-14.45989s-6.65306,-14.45989 -14.85998,-14.45989zm74.2999,0c-8.20692,0 -14.85998,6.47393 -14.85998,14.45989s6.65306,14.45989 14.85998,14.45989s14.85998,-6.47393 14.85998,-14.45989s-6.65306,-14.45989 -14.85998,-14.45989zm74.2999,0c-8.20692,0 -14.85998,6.47393 -14.85998,14.45989s6.65306,14.45989 14.85998,14.45989s14.85998,-6.47393 14.85998,-14.45989s-6.65306,-14.45989 -14.85998,-14.45989zm74.2999,0c-8.20692,0 -14.85998,6.47393 -14.85998,14.45989s6.65306,14.45989 14.85998,14.45989s14.85998,-6.47393 14.85998,-14.45989s-6.65306,-14.45989 -14.85998,-14.45989zm74.2999,0c-8.20692,0 -14.85998,6.47393 -14.85998,14.45989s6.65306,14.45989 14.85998,14.45989s14.85998,-6.47393 14.85998,-14.45989s-6.65306,-14.45989 -14.85998,-14.45989zm74.2999,0c-8.20692,0 -14.85998,6.47393 -14.85998,14.45989s6.65306,14.45989 14.85998,14.45989s14.85998,-6.47393 14.85998,-14.45989s-6.65306,-14.45989 -14.85998,-14.45989zm-705.84906,37.84394l0,25.53134c7.24139,0 13.11889,-5.71889 13.11889,-12.76567c0,-7.04642 -5.87712,-12.76567 -13.11889,-12.76567zm74.2999,0c-7.24139,0 -13.11889,5.71889 -13.11889,12.76567c0,7.04642 5.87712,12.76567 13.11889,12.76567c7.24139,0 13.11889,-5.71889 13.11889,-12.76567c0,-7.04642 -5.87712,-12.76567 -13.11889,-12.76567zm74.2999,0c-7.24139,0 -13.11889,5.71889 -13.11889,12.76567c0,7.04642 5.87712,12.76567 13.11889,12.76567c7.24152,0 13.11889,-5.71889 13.11889,-12.76567c0,-7.04642 -5.87712,-12.76567 -13.11889,-12.76567zm74.2999,0c-7.24152,0 -13.11889,5.71889 -13.11889,12.76567c0,7.04642 5.87712,12.76567 13.11889,12.76567c7.24139,0 13.11889,-5.71889 13.11889,-12.76567c0,-7.04642 -5.87712,-12.76567 -13.11889,-12.76567zm74.2999,0c-7.24139,0 -13.11889,5.71889 -13.11889,12.76567c0,7.04642 5.87712,12.76567 13.11889,12.76567c7.24139,0 13.11889,-5.71889 13.11889,-12.76567c0,-7.04642 -5.87712,-12.76567 -13.11889,-12.76567zm74.2999,0c-7.24139,0 -13.11889,5.71889 -13.11889,12.76567c0,7.04642 5.87712,12.76567 13.11889,12.76567c7.24139,0 13.11889,-5.71889 13.11889,-12.76567c0,-7.04642 -5.87712,-12.76567 -13.11889,-12.76567zm74.2999,0c-7.24139,0 -13.11889,5.71889 -13.11889,12.76567c0,7.04642 5.87712,12.76567 13.11889,12.76567c7.24139,0 13.11889,-5.71889 13.11889,-12.76567c0,-7.04642 -5.87712,-12.76567 -13.11889,-12.76567zm74.2999,0c-7.24139,0 -13.11889,5.71889 -13.11889,12.76567c0,7.04642 5.87712,12.76567 13.11889,12.76567c7.24139,0 13.11889,-5.71889 13.11889,-12.76567c0,-7.04642 -5.87712,-12.76567 -13.11889,-12.76567zm74.2999,0c-7.24139,0 -13.11889,5.71889 -13.11889,12.76567c0,7.04642 5.87712,12.76567 13.11889,12.76567c7.24139,0 13.11889,-5.71889 13.11889,-12.76567c0,-7.04642 -5.87712,-12.76567 -13.11889,-12.76567zm74.2999,0c-7.24139,0 -13.11889,5.71889 -13.11889,12.76567c0,7.04642 5.87712,12.76567 13.11889,12.76567c7.24139,0 13.11889,-5.71889 13.11889,-12.76567c0,-7.04642 -5.87712,-12.76567 -13.11889,-12.76567zm74.2999,0c-7.24139,0 -13.11889,5.71889 -13.11889,12.76567c0,7.04642 5.87712,12.76567 13.11889,12.76567l0,-25.53134zm-705.84906,37.95721c-6.1955,0 -11.26114,4.92926 -11.26114,10.95794c0,6.02857 5.06564,10.84492 11.26114,10.84492s11.26114,-4.81635 11.26114,-10.84492s-5.06564,-10.95794 -11.26114,-10.95794zm74.2999,0c-6.1955,0 -11.26114,4.92926 -11.26114,10.95794c0,6.02857 5.06564,10.84492 11.26114,10.84492c6.19537,0 11.26114,-4.81635 11.26114,-10.84492s-5.06564,-10.95794 -11.26114,-10.95794zm74.2999,0c-6.1955,0 -11.26114,4.92926 -11.26114,10.95794c0,6.02857 5.06564,10.84492 11.26114,10.84492c6.19537,0 11.26114,-4.81635 11.26114,-10.84492s-5.06564,-10.95794 -11.26114,-10.95794zm74.2999,0c-6.1955,0 -11.26114,4.92926 -11.26114,10.95794c0,6.02857 5.06564,10.84492 11.26114,10.84492s11.26114,-4.81635 11.26114,-10.84492s-5.06564,-10.95794 -11.26114,-10.95794zm74.2999,0c-6.1955,0 -11.26114,4.92926 -11.26114,10.95794c0,6.02857 5.06564,10.84492 11.26114,10.84492s11.26114,-4.81635 11.26114,-10.84492s-5.06564,-10.95794 -11.26114,-10.95794zm74.2999,0c-6.19537,0 -11.26114,4.92926 -11.26114,10.95794c0,6.02857 5.06564,10.84492 11.26114,10.84492c6.19537,0 11.26114,-4.81635 11.26114,-10.84492s-5.06564,-10.95794 -11.26114,-10.95794zm74.2999,0c-6.19537,0 -11.26114,4.92926 -11.26114,10.95794c0,6.02857 5.06564,10.84492 11.26114,10.84492c6.19537,0 11.26114,-4.81635 11.26114,-10.84492s-5.06564,-10.95794 -11.26114,-10.95794zm74.2999,0c-6.19537,0 -11.26114,4.92926 -11.26114,10.95794c0,6.02857 5.06564,10.84492 11.26114,10.84492c6.19537,0 11.26114,-4.81635 11.26114,-10.84492s-5.06564,-10.95794 -11.26114,-10.95794zm74.2999,0c-6.19537,0 -11.26114,4.92926 -11.26114,10.95794c0,6.02857 5.06564,10.84492 11.26114,10.84492c6.19537,0 11.26114,-4.81635 11.26114,-10.84492s-5.06564,-10.95794 -11.26114,-10.95794zm74.2999,0c-6.19537,0 -11.26114,4.92926 -11.26114,10.95794c0,6.02857 5.06564,10.84492 11.26114,10.84492c6.19537,0 11.26114,-4.81635 11.26114,-10.84492s-5.06564,-10.95794 -11.26114,-10.95794zm-705.84906,37.95721l0,18.18813c5.14948,0 9.28749,-4.02672 9.28749,-9.03743s-4.13801,-9.15046 -9.28749,-9.15046l0,-0.00024zm74.2999,0c-5.14948,0 -9.28749,4.13962 -9.28749,9.15046c0,5.01071 4.13801,9.03743 9.28749,9.03743s9.28749,-4.02672 9.28749,-9.03743s-4.13801,-9.15046 -9.28749,-9.15046zm74.2999,0c-5.14948,0 -9.28749,4.13962 -9.28749,9.15046c0,5.01071 4.13801,9.03743 9.28749,9.03743s9.28749,-4.02672 9.28749,-9.03743s-4.13801,-9.15046 -9.28749,-9.15046zm74.2999,0c-5.14948,0 -9.28749,4.13962 -9.28749,9.15046c0,5.01071 4.13801,9.03743 9.28749,9.03743s9.28749,-4.02672 9.28749,-9.03743s-4.13801,-9.15046 -9.28749,-9.15046zm74.2999,0c-5.14948,0 -9.28749,4.13962 -9.28749,9.15046c0,5.01071 4.13801,9.03743 9.28749,9.03743s9.28749,-4.02672 9.28749,-9.03743s-4.13801,-9.15046 -9.28749,-9.15046zm74.2999,0c-5.14948,0 -9.28749,4.13962 -9.28749,9.15046c0,5.01071 4.13801,9.03743 9.28749,9.03743s9.28749,-4.02672 9.28749,-9.03743s-4.13801,-9.15046 -9.28749,-9.15046zm74.2999,0c-5.14948,0 -9.28749,4.13962 -9.28749,9.15046c0,5.01071 4.13801,9.03743 9.28749,9.03743s9.28749,-4.02672 9.28749,-9.03743s-4.13801,-9.15046 -9.28749,-9.15046zm74.2999,0c-5.14948,0 -9.28749,4.13962 -9.28749,9.15046c0,5.01071 4.13801,9.03743 9.28749,9.03743s9.28749,-4.02672 9.28749,-9.03743s-4.13801,-9.15046 -9.28749,-9.15046zm74.2999,0c-5.14948,0 -9.28749,4.13962 -9.28749,9.15046c0,5.01071 4.13801,9.03743 9.28749,9.03743s9.28749,-4.02672 9.28749,-9.03743s-4.13801,-9.15046 -9.28749,-9.15046zm74.2999,0c-5.14948,0 -9.28749,4.13962 -9.28749,9.15046c0,5.01071 4.13801,9.03743 9.28749,9.03743s9.28749,-4.02672 9.28749,-9.03743s-4.13801,-9.15046 -9.28749,-9.15046zm74.2999,0c-5.14948,0 -9.28749,4.13962 -9.28749,9.15046c0,5.01071 4.13801,9.03743 9.28749,9.03743l0,-18.18813l0,0.00024zm-705.84906,38.06566c-4.10346,0 -7.42999,3.23685 -7.42999,7.22994s3.32653,7.22994 7.42999,7.22994s7.42999,-3.23685 7.42999,-7.22994s-3.32653,-7.22994 -7.42999,-7.22994zm74.2999,0c-4.10346,0 -7.42999,3.23685 -7.42999,7.22994s3.32653,7.22994 7.42999,7.22994s7.42999,-3.23685 7.42999,-7.22994s-3.32653,-7.22994 -7.42999,-7.22994zm74.2999,0c-4.10346,0 -7.42999,3.23685 -7.42999,7.22994s3.32653,7.22994 7.42999,7.22994s7.42999,-3.23685 7.42999,-7.22994s-3.32653,-7.22994 -7.42999,-7.22994zm74.2999,0c-4.10346,0 -7.42999,3.23685 -7.42999,7.22994s3.32653,7.22994 7.42999,7.22994s7.42999,-3.23685 7.42999,-7.22994s-3.32653,-7.22994 -7.42999,-7.22994zm74.2999,0c-4.10346,0 -7.42999,3.23685 -7.42999,7.22994s3.32653,7.22994 7.42999,7.22994s7.42999,-3.23685 7.42999,-7.22994s-3.32653,-7.22994 -7.42999,-7.22994zm74.2999,0c-4.10346,0 -7.42999,3.23685 -7.42999,7.22994s3.32653,7.22994 7.42999,7.22994s7.42999,-3.23685 7.42999,-7.22994s-3.32653,-7.22994 -7.42999,-7.22994zm74.2999,0c-4.10346,0 -7.42999,3.23685 -7.42999,7.22994s3.32653,7.22994 7.42999,7.22994s7.42999,-3.23685 7.42999,-7.22994s-3.32653,-7.22994 -7.42999,-7.22994zm74.2999,0c-4.10346,0 -7.42999,3.23685 -7.42999,7.22994s3.32653,7.22994 7.42999,7.22994s7.42999,-3.23685 7.42999,-7.22994s-3.32653,-7.22994 -7.42999,-7.22994zm74.2999,0c-4.10346,0 -7.42999,3.23685 -7.42999,7.22994s3.32653,7.22994 7.42999,7.22994s7.42999,-3.23685 7.42999,-7.22994s-3.32653,-7.22994 -7.42999,-7.22994zm74.2999,0c-4.10346,0 -7.42999,3.23685 -7.42999,7.22994s3.32653,7.22994 7.42999,7.22994s7.42999,-3.23685 7.42999,-7.22994s-3.32653,-7.22994 -7.42999,-7.22994zm-705.84906,37.84394l0,11.07049c3.13793,0 5.68865,-2.48168 5.68865,-5.53525s-2.55059,-5.53525 -5.68865,-5.53525zm74.2999,0c-3.13793,0 -5.68865,2.48168 -5.68865,5.53525s2.55059,5.53525 5.68865,5.53525c3.13793,0 5.68865,-2.48168 5.68865,-5.53525s-2.55072,-5.53525 -5.68865,-5.53525zm74.2999,0c-3.13793,0 -5.68865,2.48168 -5.68865,5.53525s2.55072,5.53525 5.68865,5.53525s5.68865,-2.48168 5.68865,-5.53525s-2.55059,-5.53525 -5.68865,-5.53525zm74.2999,0c-3.13793,0 -5.68865,2.48168 -5.68865,5.53525s2.55059,5.53525 5.68865,5.53525c3.13793,0 5.68865,-2.48168 5.68865,-5.53525s-2.55072,-5.53525 -5.68865,-5.53525zm74.2999,0c-3.13793,0 -5.68865,2.48168 -5.68865,5.53525s2.55059,5.53525 5.68865,5.53525c3.13793,0 5.68865,-2.48168 5.68865,-5.53525s-2.55059,-5.53525 -5.68865,-5.53525zm74.2999,0c-3.13793,0 -5.68865,2.48168 -5.68865,5.53525s2.55059,5.53525 5.68865,5.53525c3.13793,0 5.68865,-2.48168 5.68865,-5.53525s-2.55059,-5.53525 -5.68865,-5.53525zm74.2999,0c-3.13793,0 -5.68865,2.48168 -5.68865,5.53525s2.55059,5.53525 5.68865,5.53525c3.13793,0 5.68865,-2.48168 5.68865,-5.53525s-2.55059,-5.53525 -5.68865,-5.53525zm74.2999,0c-3.13793,0 -5.68865,2.48168 -5.68865,5.53525s2.55059,5.53525 5.68865,5.53525c3.13793,0 5.68865,-2.48168 5.68865,-5.53525s-2.55059,-5.53525 -5.68865,-5.53525zm74.2999,0c-3.13793,0 -5.68865,2.48168 -5.68865,5.53525s2.55059,5.53525 5.68865,5.53525c3.13793,0 5.68865,-2.48168 5.68865,-5.53525s-2.55059,-5.53525 -5.68865,-5.53525zm74.2999,0c-3.13793,0 -5.68865,2.48168 -5.68865,5.53525s2.55059,5.53525 5.68865,5.53525c3.13793,0 5.68865,-2.48168 5.68865,-5.53525s-2.55059,-5.53525 -5.68865,-5.53525zm74.2999,0c-3.13793,0 -5.68865,2.48168 -5.68865,5.53525s2.55059,5.53525 5.68865,5.53525l0,-11.07049zm-705.84906,37.95721c-2.09191,0 -3.83115,1.69217 -3.83115,3.72776s1.73911,3.61497 3.83115,3.61497c2.09191,0 3.83115,-1.57938 3.83115,-3.61497s-1.73911,-3.72776 -3.83115,-3.72776zm74.2999,0c-2.09191,0 -3.83115,1.69217 -3.83115,3.72776s1.73911,3.61497 3.83115,3.61497c2.09191,0 3.83115,-1.57938 3.83115,-3.61497s-1.73911,-3.72776 -3.83115,-3.72776zm74.2999,0c-2.09204,0 -3.83115,1.69217 -3.83115,3.72776s1.73911,3.61497 3.83115,3.61497c2.09191,0 3.83115,-1.57938 3.83115,-3.61497s-1.73911,-3.72776 -3.83115,-3.72776zm74.2999,0c-2.09204,0 -3.83115,1.69217 -3.83115,3.72776s1.73911,3.61497 3.83115,3.61497c2.09191,0 3.83115,-1.57938 3.83115,-3.61497s-1.73911,-3.72776 -3.83115,-3.72776zm74.2999,0c-2.09204,0 -3.83115,1.69217 -3.83115,3.72776s1.73911,3.61497 3.83115,3.61497c2.09191,0 3.83115,-1.57938 3.83115,-3.61497s-1.73911,-3.72776 -3.83115,-3.72776zm74.2999,0c-2.09191,0 -3.83115,1.69217 -3.83115,3.72776s1.73911,3.61497 3.83115,3.61497c2.09191,0 3.83115,-1.57938 3.83115,-3.61497s-1.73911,-3.72776 -3.83115,-3.72776zm74.2999,0c-2.09191,0 -3.83115,1.69217 -3.83115,3.72776s1.73911,3.61497 3.83115,3.61497c2.09191,0 3.83115,-1.57938 3.83115,-3.61497s-1.73911,-3.72776 -3.83115,-3.72776zm74.2999,0c-2.09191,0 -3.83115,1.69217 -3.83115,3.72776s1.73911,3.61497 3.83115,3.61497c2.09191,0 3.83115,-1.57938 3.83115,-3.61497s-1.73911,-3.72776 -3.83115,-3.72776zm74.2999,0c-2.09191,0 -3.83115,1.69217 -3.83115,3.72776s1.73911,3.61497 3.83115,3.61497c2.09191,0 3.83115,-1.57938 3.83115,-3.61497s-1.73911,-3.72776 -3.83115,-3.72776zm74.2999,0c-2.09191,0 -3.83115,1.69217 -3.83115,3.72776s1.73911,3.61497 3.83115,3.61497c2.09191,0 3.83115,-1.57938 3.83115,-3.61497s-1.73911,-3.72776 -3.83115,-3.72776z"  id="use19704"/>
  </g>
 </g>
</svg>